<svg width="16" height="17" viewBox="0 0 16 17" fill="none" xmlns="http://www.w3.org/2000/svg">
<path fill-rule="evenodd" clip-rule="evenodd" d="M12.83 15.1288H3.17C2.254 15.1288 1.51 14.452 1.51 13.62V7.76885H14.49V13.62C14.49 14.452 13.746 15.1288 12.83 15.1288ZM13.635 1.9623C14.939 1.9623 16 2.92618 16 4.11115V13.62C16 15.2084 14.578 16.5 12.83 16.5H3.17C1.422 16.5 0 15.2084 0 13.62V4.11115C0 2.92618 1.062 1.9623 2.366 1.9623C2.782 1.9623 3.121 2.2697 3.121 2.64885C3.121 3.02703 2.782 3.33442 2.366 3.33442C1.894 3.33442 1.509 3.68255 1.509 4.11115V6.39673H14.491V4.11115C14.491 3.68255 14.107 3.33442 13.635 3.33442C13.219 3.33442 12.881 3.02703 12.881 2.64885C12.881 2.27067 13.219 1.9623 13.635 1.9623ZM5.585 4.79673C5.168 4.79673 4.83 4.4903 4.83 4.11115V1.18558C4.83 0.807394 5.168 0.5 5.585 0.5C6.001 0.5 6.339 0.807394 6.339 1.18558V4.11115C6.339 4.48933 6.001 4.79673 5.585 4.79673ZM10.415 4.79673C9.999 4.79673 9.661 4.4903 9.661 4.11115V1.18558C9.661 0.807394 9.999 0.5 10.416 0.5C10.832 0.5 11.17 0.807394 11.17 1.18558V4.11115C11.17 4.48933 10.832 4.79673 10.416 4.79673H10.415ZM6.391 9.27673H3.975C3.559 9.27673 3.221 9.58412 3.221 9.96327C3.221 10.3415 3.559 10.6488 3.975 10.6488H6.391C6.807 10.6488 7.145 10.3415 7.145 9.96327C7.145 9.58509 6.807 9.27673 6.391 9.27673ZM12.025 9.27673H9.61C9.194 9.27673 8.856 9.58412 8.856 9.96327C8.856 10.3415 9.194 10.6488 9.61 10.6488H12.025C12.442 10.6488 12.78 10.3415 12.78 9.96327C12.78 9.58509 12.442 9.27673 12.025 9.27673ZM6.391 12.2023H3.975C3.559 12.2023 3.221 12.5097 3.221 12.8879C3.221 13.2661 3.559 13.5744 3.975 13.5744H6.391C6.807 13.5744 7.145 13.267 7.145 12.8879C7.145 12.5097 6.807 12.2023 6.391 12.2023Z" fill="#BCBCBC"/>
</svg>
