<svg width="23" height="20" viewBox="0 0 23 20" xmlns="http://www.w3.org/2000/svg">
<path d="M21.3935 17.5171C21.3935 16.8586 21.1319 16.227 20.6662 15.7615C20.2007 15.2958 19.5692 15.0343 18.9107 15.0343C18.2522 15.0343 17.6207 15.2958 17.155 15.7615C16.6894 16.227 16.4277 16.8586 16.4277 17.5171C16.4277 18.1755 16.6894 18.8071 17.155 19.2728C17.6206 19.7383 18.2522 20 18.9107 20C19.5686 19.9986 20.1995 19.7365 20.6648 19.2712C21.1301 18.8058 21.3922 18.1752 21.3935 17.5171ZM17.4761 17.5171C17.4761 17.1373 17.6269 16.7732 17.8956 16.5047C18.1641 16.236 18.5282 16.0852 18.9079 16.0852C19.2879 16.0852 19.652 16.236 19.9205 16.5047C20.189 16.7732 20.34 17.1373 20.34 17.5171C20.34 17.8968 20.189 18.2611 19.9205 18.5296C19.652 18.7981 19.2879 18.949 18.9079 18.949C18.5289 18.9477 18.1657 18.7963 17.898 18.528C17.6302 18.2597 17.4794 17.8962 17.4788 17.5171L17.4761 17.5171Z"/>
<path d="M3.43018 0.000652185H0.77659C0.48629 0.000652185 0.250977 0.23597 0.250977 0.526078C0.250977 0.816378 0.486294 1.05169 0.77659 1.05169H3.43018C3.66605 1.05151 3.89514 1.13068 4.08041 1.27657C4.26587 1.42245 4.39673 1.62624 4.45226 1.85552L6.77485 11.5557C6.88463 12.0151 7.14616 12.4242 7.51689 12.7169C7.88783 13.0095 8.34639 13.1688 8.81885 13.1688H19.478C19.9471 13.1693 20.4031 13.0128 20.773 12.7244C21.143 12.4359 21.4058 12.0318 21.5194 11.5767L22.9539 5.76744H22.9541C23.0704 5.29662 22.9636 4.7985 22.6645 4.41674C22.3654 4.03499 21.9072 3.81212 21.4223 3.81268H13.3957C13.1055 3.81268 12.8702 4.04781 12.8702 4.33811C12.8702 4.62822 13.1056 4.86353 13.3957 4.86353H21.4223C21.5837 4.86371 21.7362 4.93812 21.8357 5.06531C21.9352 5.1925 21.9708 5.35836 21.9319 5.51506L20.4975 11.3136C20.439 11.5395 20.3073 11.7395 20.1227 11.8822C19.9382 12.025 19.7113 12.1022 19.478 12.1018H8.81885C8.58517 12.1027 8.35774 12.0257 8.17266 11.883C7.98755 11.7402 7.85523 11.5399 7.79677 11.3135L5.47418 1.61059C5.36385 1.15168 5.10232 0.743183 4.73139 0.451029C4.36063 0.158712 3.90227 0 3.43018 0L3.43018 0.000652185Z"/>
<path d="M11.1964 17.5171C11.1964 16.8586 10.9349 16.227 10.4692 15.7615C10.0037 15.2958 9.37215 15.0343 8.71366 15.0343C8.05518 15.0343 7.42363 15.2958 6.95793 15.7615C6.49242 16.227 6.23071 16.8586 6.23071 17.5171C6.23071 18.1755 6.49242 18.8071 6.95793 19.2728C7.42362 19.7383 8.05518 20 8.71366 20C9.37158 19.9986 10.0024 19.7365 10.4678 19.2712C10.9331 18.8058 11.1952 18.1752 11.1964 17.5171ZM7.27903 17.5171C7.27903 17.1373 7.42986 16.7732 7.69854 16.5047C7.96703 16.236 8.33117 16.0852 8.71092 16.0852C9.09084 16.0852 9.45498 16.236 9.72348 16.5047C9.99198 16.7732 10.1428 17.1373 10.1428 17.5171C10.1428 17.8968 9.99198 18.2611 9.72348 18.5296C9.45499 18.7981 9.09085 18.949 8.71092 18.949C8.33137 18.9484 7.96756 18.7972 7.69929 18.5289C7.43079 18.2604 7.27976 17.8966 7.27903 17.5171Z"/>
</svg>
