<svg xmlns="http://www.w3.org/2000/svg" width='14' height='14' viewBox="0 0 20 20" fill="#BCBCBC">
    <path d="M17.112 14.222c1.032 0 1.873.84 1.873 1.873v3.048a.857.857 0 01-1.714 0v-2.29A10.018 10.018 0 0110 20C4.486 20 0 15.514 0 10a.857.857 0 011.714 0c0 4.57 3.717 8.286 8.286 8.286a8.293 8.293 0 005.764-2.35h-1.7a.857.857 0 010-1.714h3.048zM10 0c5.514 0 10 4.486 10 10a.857.857 0 01-1.714 0c0-4.57-3.717-8.286-8.286-8.286a8.293 8.293 0 00-5.765 2.35h1.701a.857.857 0 010 1.714H2.888a1.875 1.875 0 01-1.872-1.873V.857a.857.857 0 011.715 0V3.15C4.616 1.15 7.247 0 10 0z" />
</svg>