<svg xmlns="http://www.w3.org/2000/svg" viewBox="0 0 20 16">
    <path d="M19.788.212a.712.712 0 00-.503-.197h-1.428a.712.712 0 00-.502.197.619.619 0 00-.212.468v7.05a.669.669 0 00-.146-.198L9.073.15c-.141-.132-.26-.177-.357-.135-.097.042-.145.152-.145.333V7.73a.668.668 0 00-.145-.198L.502.15C.361.018.242-.027.145.015.048.057 0 .167 0 .348v15.304c0 .18.049.291.145.333.097.042.216-.004.357-.135l7.924-7.382a.906.906 0 00.145-.198v7.382c0 .18.049.291.145.333.097.041.216-.004.357-.136l7.924-7.381a.909.909 0 00.146-.198v7.05c0 .18.07.335.212.467a.712.712 0 00.502.197h1.429c.193 0 .36-.065.502-.197a.62.62 0 00.212-.468V.68a.62.62 0 00-.212-.468z" />
</svg>