<?xml version="1.0" encoding="UTF-8"?>
<svg version="1.1" viewBox="0 0 25 16" xmlns="http://www.w3.org/2000/svg" xmlns:xlink="http://www.w3.org/1999/xlink">
  <path d="M23.91 5.03a.636.636 0 01-.019.198l-1.535 5.867a.693.693 0 01-.673.505l-9.212.044H3.256c-.32 0-.6-.208-.677-.505L1.044 5.25a.637.637 0 01-.018-.204C.432 4.868 0 4.336 0 3.711c0-.772.657-1.4 1.465-1.4s1.466.628 1.466 1.4c0 .435-.209.824-.535 1.08l1.922 1.851c.486.468 1.16.736 1.85.736.815 0 1.592-.37 2.082-.99l3.159-3.999a1.365 1.365 0 01-.43-.989c0-.772.657-1.4 1.465-1.4.809 0 1.466.628 1.466 1.4 0 .374-.156.714-.407.966l.003.003 3.135 4.01c.49.625 1.27.999 2.088.999.696 0 1.35-.26 1.842-.73l1.935-1.847a1.375 1.375 0 01-.548-1.09c0-.772.657-1.4 1.465-1.4.809 0 1.466.628 1.466 1.4 0 .61-.41 1.127-.98 1.32zm-1.704 8.703c0-.368-.312-.666-.698-.666H3.458c-.385 0-.698.298-.698.666v1.6c0 .369.313.667.698.667h18.05c.386 0 .698-.298.698-.667v-1.6z"/>
</svg>
