<svg width="18" height="19" viewBox="0 0 18 19" xmlns="http://www.w3.org/2000/svg">
<path d="M14.1213 0.5H3.87831C2.85005 0.501191 1.86425 0.910207 1.13717 1.63732C0.410104 2.36442 0.00113831 3.35025 0 4.37851V14.6215C0.00113831 15.6498 0.410104 16.6356 1.13717 17.3627C1.86425 18.0898 2.85005 18.4988 3.87831 18.5H14.1213C15.1496 18.4988 16.1354 18.0898 16.8624 17.3627C17.5895 16.6356 17.9985 15.6498 17.9996 14.6215V4.37851C17.9985 3.35025 17.5895 2.36442 16.8624 1.63732C16.1354 0.910207 15.1496 0.501191 14.1213 0.5ZM17.1873 14.6215C17.1864 15.4344 16.8631 16.2138 16.2883 16.7886C15.7135 17.3634 14.9342 17.6868 14.1213 17.6877H3.87831C3.0654 17.6868 2.28606 17.3634 1.71126 16.7886C1.13647 16.2138 0.813161 15.4344 0.812268 14.6215V4.37851C0.813161 3.5656 1.13647 2.78624 1.71126 2.2114C2.28606 1.63657 3.0654 1.31321 3.87831 1.31227H14.1213C14.9342 1.31321 15.7135 1.63657 16.2883 2.2114C16.8631 2.78624 17.1864 3.5656 17.1873 4.37851V14.6215Z" />
<path d="M14.664 9.37588H9.40602V4.11793C9.40602 4.01021 9.36323 3.90691 9.28707 3.83075C9.2109 3.75458 9.1076 3.71179 8.99989 3.71179C8.89217 3.71179 8.78887 3.75458 8.71271 3.83075C8.63654 3.90691 8.59375 4.01021 8.59375 4.11793V9.37588H3.33582C3.22811 9.37588 3.12481 9.41867 3.04864 9.49483C2.97248 9.571 2.92969 9.6743 2.92969 9.78201C2.92969 9.88973 2.97248 9.99303 3.04864 10.0692C3.12481 10.1454 3.22811 10.1881 3.33582 10.1881H8.59375V15.4461C8.59375 15.5538 8.63654 15.6571 8.71271 15.7333C8.78887 15.8094 8.89217 15.8522 8.99989 15.8522C9.1076 15.8522 9.2109 15.8094 9.28707 15.7333C9.36323 15.6571 9.40602 15.5538 9.40602 15.4461V10.1881H14.664C14.7717 10.1881 14.875 10.1454 14.9511 10.0692C15.0273 9.99303 15.0701 9.88973 15.0701 9.78201C15.0701 9.6743 15.0273 9.571 14.9511 9.49483C14.875 9.41867 14.7717 9.37588 14.664 9.37588Z" />
</svg>
