<svg xmlns="http://www.w3.org/2000/svg" viewBox="0 0 22 16">
    <path d="M21.535 6.966C20.455 2.123 18.934.928 18.008.45c-1.484-.767-3.204-.32-3.775-.031-.648.327-1.085.95-1.744 1.22-.761.31-1.796.395-2.575.02-.62-.3-1.168-.94-1.92-1.224-.952-.36-2.54-.865-4.11.238C3.512.933.864 3.11.068 9.904c-.491 4.19 1.854 5.539 1.768 5.478.604.423 1.955 1.14 3.786.018 1.223-.75 2.216-2.23 2.216-2.23s.443-.822 1.03-1.172c.416-.248 1.038-.06 1.038-.06h2.202s.699-.086 1.19.127c.476.203.745.706.745.706s1.451 1.837 2.842 2.773c.592.398 2.972.856 4.2-.614.803-.962 1.35-3.92.45-7.964zM9.773 6.537a.666.666 0 01-.667.666H7.438v1.668a.667.667 0 01-.666.667h-.5a.666.666 0 01-.667-.667V7.203h-1.67a.666.666 0 01-.666-.666v-.5c0-.368.299-.667.667-.667h1.668V3.705c0-.369.298-.668.667-.668h.5c.368 0 .667.299.667.668V5.37h1.668c.368 0 .667.298.667.667v.5zm4.698 2.333a1.25 1.25 0 11-.001-2.5 1.25 1.25 0 01.001 2.5zm2.293-2.776a1.237 1.237 0 110-2.473 1.237 1.237 0 010 2.473z" />
</svg>